<svg xmlns="http://www.w3.org/2000/svg" width="1440" height="900" viewBox="0 0 1440 900">
<rect width="100%" height="100%" fill="#f3f4f7" />
<rect x="24" y="24" width="1392" height="852" rx="24" ry="24" fill="#ffffff" stroke="#cfd5df" stroke-width="1" />
<rect x="24" y="24" width="1392" height="56" rx="24" ry="24" fill="#f5f6f8" stroke="#cfd5df" stroke-width="1" />
<rect x="24" y="56" width="1392" height="24" fill="#f5f6f8" />
<text x="64" y="55" fill="#22252b" font-family="-apple-system,BlinkMacSystemFont,Segoe UI,sans-serif" font-size="16" font-weight="400">OpenSlop</text>
<rect x="240" y="36" width="180" height="30" rx="14" ry="14" fill="#dbeafe" stroke="#cfd5df" stroke-width="1" />
<text x="260" y="55" fill="#334155" font-family="-apple-system,BlinkMacSystemFont,Segoe UI,sans-serif" font-size="14" font-weight="400">Codex / Claude</text>
<rect x="1020" y="36" width="96" height="30" rx="14" ry="14" fill="#ffffff" stroke="#cfd5df" stroke-width="1" />
<text x="1044" y="55" fill="#334155" font-family="-apple-system,BlinkMacSystemFont,Segoe UI,sans-serif" font-size="14" font-weight="400">Refresh</text>
<rect x="1130" y="36" width="96" height="30" rx="14" ry="14" fill="#ffffff" stroke="#cfd5df" stroke-width="1" />
<text x="1158" y="55" fill="#334155" font-family="-apple-system,BlinkMacSystemFont,Segoe UI,sans-serif" font-size="14" font-weight="400">Start</text>
<rect x="1240" y="36" width="120" height="30" rx="14" ry="14" fill="#ffffff" stroke="#cfd5df" stroke-width="1" />
<text x="1264" y="55" fill="#334155" font-family="-apple-system,BlinkMacSystemFont,Segoe UI,sans-serif" font-size="14" font-weight="400">Inspector</text>
<text x="40" y="106" fill="#6b7280" font-family="-apple-system,BlinkMacSystemFont,Segoe UI,sans-serif" font-size="13" font-weight="400">workbench · shell · empty</text>
<rect x="24" y="82" width="278" height="676" fill="#edf1f6" stroke="#cfd5df" stroke-width="1" />
<rect x="302" y="82" width="782" height="676" fill="#fbfbfc" stroke="#cfd5df" stroke-width="1" />
<rect x="24" y="758" width="1392" height="118" fill="#f5f6f8" stroke="#cfd5df" stroke-width="1" />
<rect x="1084" y="82" width="332" height="676" fill="#e8edf4" stroke="#cfd5df" stroke-width="1" />
<line x1="1084" y1="82" x2="1084" y2="758" stroke="#bcc5d1" stroke-width="2" />
<text x="48" y="140" fill="#22252b" font-family="-apple-system,BlinkMacSystemFont,Segoe UI,sans-serif" font-size="18" font-weight="600">Workbench</text>
<rect x="48" y="160" width="216" height="100" rx="18" ry="18" fill="#ffffff" stroke="#cfd5df" stroke-width="1" />
<text x="76" y="196" fill="#6b7280" font-family="-apple-system,BlinkMacSystemFont,Segoe UI,sans-serif" font-size="16" font-weight="400">No sessions yet</text>
<text x="76" y="222" fill="#6b7280" font-family="-apple-system,BlinkMacSystemFont,Segoe UI,sans-serif" font-size="14" font-weight="400">Projection loads here</text>
<rect x="350" y="170" width="690" height="250" rx="18" ry="18" fill="#ffffff" stroke="#cfd5df" stroke-width="1" />
<text x="390" y="208" fill="#22252b" font-family="-apple-system,BlinkMacSystemFont,Segoe UI,sans-serif" font-size="18" font-weight="400">Timeline empty state</text>
<text x="390" y="238" fill="#6b7280" font-family="-apple-system,BlinkMacSystemFont,Segoe UI,sans-serif" font-size="15" font-weight="400">Sidebar · Timeline · Inspector · Composer</text>
<text x="390" y="268" fill="#6b7280" font-family="-apple-system,BlinkMacSystemFont,Segoe UI,sans-serif" font-size="15" font-weight="400">The shell stays readable before live work begins.</text>
<text x="1110" y="140" fill="#22252b" font-family="-apple-system,BlinkMacSystemFont,Segoe UI,sans-serif" font-size="17" font-weight="600">Inspector</text>
<rect x="1110" y="160" width="280" height="220" rx="18" ry="18" fill="#ffffff" stroke="#cfd5df" stroke-width="1" />
<text x="1134" y="196" fill="#22252b" font-family="-apple-system,BlinkMacSystemFont,Segoe UI,sans-serif" font-size="17" font-weight="400">Inspector summary</text>
<text x="1134" y="226" fill="#6b7280" font-family="-apple-system,BlinkMacSystemFont,Segoe UI,sans-serif" font-size="14" font-weight="400">Projection · Sessions · Provider</text>
<text x="1134" y="256" fill="#6b7280" font-family="-apple-system,BlinkMacSystemFont,Segoe UI,sans-serif" font-size="14" font-weight="400">Quiet secondary surface</text>
<rect x="52" y="786" width="1336" height="72" rx="18" ry="18" fill="#ffffff" stroke="#cfd5df" stroke-width="1" />
<text x="76" y="822" fill="#6b7280" font-family="-apple-system,BlinkMacSystemFont,Segoe UI,sans-serif" font-size="15" font-weight="400">Composer draft / provider / effort / submit</text>
</svg>